{"asset":{"version":"2.0","generator":"THREE.GLTFExporter r164"},"scenes":[{"name":"AuxScene","nodes":[29]}],"scene":0,"nodes":[{"extras":{"jointType":"fixed"},"mesh":0},{"matrix":[1,0,0,0,0,1,0,0,0,0,0.8990766390605535,0,0,0,0,1],"mesh":1},{"extras":{"jointType":"fixed"},"mesh":2},{"matrix":[1.305281688499027,0,0,0,0,0.37560003566951533,0,0,0,0,0.7517465009106035,0,0,0,0,1],"mesh":3},{"extras":{"jointType":"fixed"},"mesh":4},{"matrix":[0.22003292601349297,0,0,0,0,0.731453074718695,0,0,0,0,0.22880232527655608,0,0,0,0,1],"mesh":5},{"children":[5]},{"children":[6]},{"matrix":[1,0,0,0,0,1,0,0,0,0,1,0,0.5534093858717117,-0.007689228522186675,-0.4338811904821537,1],"extras":{"name":"cube2","shape":"cube","inertia":{"customInertia":false,"mass":1,"ixx":0.16666666666666666,"iyy":0.16666666666666666,"izz":0.16666666666666666,"ixy":0,"ixz":0,"iyz":0},"isBaseLink":false,"selectable":true,"sensor":null,"stlfile":null,"jointType":"fixed"},"children":[4,7]},{"extras":{"jointType":"fixed"},"mesh":6},{"matrix":[0.22003292601349297,0,0,0,0,0.731453074718695,0,0,0,0,0.22880232527655608,0,0,0,0,1],"mesh":7},{"children":[10]},{"children":[11]},{"matrix":[1,0,0,0,0,1,0,0,0,0,1,0,-0.5461475292571013,-0.007689228522186675,-0.4338811904821537,1],"extras":{"name":"cube2_copy","shape":"cube","inertia":{"customInertia":false,"mass":1,"ixx":0,"iyy":0,"izz":0,"ixy":0,"ixz":0,"iyz":0},"isBaseLink":false,"selectable":true,"sensor":null,"stlfile":null,"jointType":"fixed"},"children":[9,12]},{"children":[3,8,13]},{"children":[14]},{"matrix":[1,0,0,0,0,1,0,0,0,0,1,0,0.01122375260177444,0.0003834646781513129,-0.05895520237423024,1],"extras":{"name":"cube1","shape":"cube","inertia":{"customInertia":false,"mass":1,"ixx":0.16666666666666666,"iyy":0.16666666666666666,"izz":0.16666666666666666,"ixy":0,"ixz":0,"iyz":0},"isBaseLink":false,"selectable":true,"sensor":null,"stlfile":null,"jointType":"fixed"},"children":[2,15]},{"extras":{"jointType":"fixed"},"mesh":8},{"matrix":[0.9603960062482867,0,0,0,0,0.9603960062482867,0,0,0,0,0.9603960062482867,0,0,0,0,1],"mesh":9},{"extras":{"jointType":"fixed"},"mesh":10},{"matrix":[0.10775864740701965,0,0,0,0,0.10492879944117948,0,0,0,0,0.1704377157515723,0,0,0,0,1],"mesh":11},{"children":[20]},{"children":[21]},{"matrix":[1,0,0,0,0,1,0,0,0,0,1,0,0.011509974937614853,0.32933457639190333,0.32127872432180027,1],"extras":{"name":"cube3","shape":"cube","inertia":{"customInertia":false,"mass":1,"ixx":0.16666666666666666,"iyy":0.16666666666666666,"izz":0.16666666666666666,"ixy":0,"ixz":0,"iyz":0},"isBaseLink":false,"selectable":true,"sensor":null,"stlfile":null,"jointType":"fixed"},"children":[19,22]},{"children":[18,23]},{"children":[24]},{"matrix":[1,0,0,0,0,1,0,0,0,0,1,0,0.013738803682111667,0.008421101598049319,0.4182483849050299,1],"extras":{"name":"sphere3","shape":"sphere","inertia":{"customInertia":false,"mass":1,"ixx":0.4,"iyy":0.4,"izz":0.4,"ixy":0,"ixz":0,"iyz":0},"isBaseLink":false,"selectable":true,"sensor":null,"stlfile":null,"jointType":"fixed"},"children":[17,25]},{"children":[1,16,26]},{"children":[27]},{"matrix":[1,0,0,0,0,1,0,0,0,0,1,0,0,0,0.6635367414087467,1],"extras":{"name":"base_link","shape":"cylinder","inertia":{"customInertia":false,"mass":1,"ixx":0.3333333333333333,"iyy":0.5,"izz":0.3333333333333333,"ixy":0,"ixz":0,"iyz":0},"isBaseLink":true,"selectable":true,"sensor":null,"stlfile":null,"jointType":"fixed"},"children":[0,28]}],"bufferViews":[{"buffer":0,"byteOffset":0,"byteLength":24,"target":34962,"byteStride":12},{"buffer":0,"byteOffset":24,"byteLength":2352,"target":34962,"byteStride":12},{"buffer":0,"byteOffset":2376,"byteLength":2352,"target":34962,"byteStride":12},{"buffer":0,"byteOffset":4728,"byteLength":1568,"target":34962,"byteStride":8},{"buffer":0,"byteOffset":6296,"byteLength":768,"target":34963},{"buffer":0,"byteOffset":7064,"byteLength":24,"target":34962,"byteStride":12},{"buffer":0,"byteOffset":7088,"byteLength":288,"target":34962,"byteStride":12},{"buffer":0,"byteOffset":7376,"byteLength":288,"target":34962,"byteStride":12},{"buffer":0,"byteOffset":7664,"byteLength":192,"target":34962,"byteStride":8},{"buffer":0,"byteOffset":7856,"byteLength":72,"target":34963},{"buffer":0,"byteOffset":7928,"byteLength":24,"target":34962,"byteStride":12},{"buffer":0,"byteOffset":7952,"byteLength":288,"target":34962,"byteStride":12},{"buffer":0,"byteOffset":8240,"byteLength":288,"target":34962,"byteStride":12},{"buffer":0,"byteOffset":8528,"byteLength":192,"target":34962,"byteStride":8},{"buffer":0,"byteOffset":8720,"byteLength":72,"target":34963},{"buffer":0,"byteOffset":8792,"byteLength":24,"target":34962,"byteStride":12},{"buffer":0,"byteOffset":8816,"byteLength":288,"target":34962,"byteStride":12},{"buffer":0,"byteOffset":9104,"byteLength":288,"target":34962,"byteStride":12},{"buffer":0,"byteOffset":9392,"byteLength":192,"target":34962,"byteStride":8},{"buffer":0,"byteOffset":9584,"byteLength":72,"target":34963},{"buffer":0,"byteOffset":9656,"byteLength":24,"target":34962,"byteStride":12},{"buffer":0,"byteOffset":9680,"byteLength":13068,"target":34962,"byteStride":12},{"buffer":0,"byteOffset":22748,"byteLength":13068,"target":34962,"byteStride":12},{"buffer":0,"byteOffset":35816,"byteLength":8712,"target":34962,"byteStride":8},{"buffer":0,"byteOffset":44528,"byteLength":11904,"target":34963},{"buffer":0,"byteOffset":56432,"byteLength":24,"target":34962,"byteStride":12},{"buffer":0,"byteOffset":56456,"byteLength":288,"target":34962,"byteStride":12},{"buffer":0,"byteOffset":56744,"byteLength":288,"target":34962,"byteStride":12},{"buffer":0,"byteOffset":57032,"byteLength":192,"target":34962,"byteStride":8},{"buffer":0,"byteOffset":57224,"byteLength":72,"target":34963}],"buffers":[{"byteLength":57296,"uri":"data:application/octet-stream;base64,"}],"accessors":[{"bufferView":0,"componentType":5126,"count":2,"max":[0,0,5],"min":[0,0,-5],"type":"VEC3"},{"bufferView":1,"componentType":5126,"count":196,"max":[0.5,0.5,0.5],"min":[-0.5,-0.5,-0.5],"type":"VEC3"},{"bufferView":2,"componentType":5126,"count":196,"max":[1,1,1],"min":[-1,-1,-1],"type":"VEC3"},{"bufferView":3,"componentType":5126,"count":196,"max":[1,1],"min":[0,0],"type":"VEC2"},{"bufferView":4,"componentType":5123,"count":384,"max":[195],"min":[0],"type":"SCALAR"},{"bufferView":5,"componentType":5126,"count":2,"max":[0,0,5],"min":[0,0,-5],"type":"VEC3"},{"bufferView":6,"componentType":5126,"count":24,"max":[0.5,0.5,0.5],"min":[-0.5,-0.5,-0.5],"type":"VEC3"},{"bufferView":7,"componentType":5126,"count":24,"max":[1,1,1],"min":[-1,-1,-1],"type":"VEC3"},{"bufferView":8,"componentType":5126,"count":24,"max":[1,1],"min":[0,0],"type":"VEC2"},{"bufferView":9,"componentType":5123,"count":36,"max":[23],"min":[0],"type":"SCALAR"},{"bufferView":10,"componentType":5126,"count":2,"max":[0,0,5],"min":[0,0,-5],"type":"VEC3"},{"bufferView":11,"componentType":5126,"count":24,"max":[0.5,0.5,0.5],"min":[-0.5,-0.5,-0.5],"type":"VEC3"},{"bufferView":12,"componentType":5126,"count":24,"max":[1,1,1],"min":[-1,-1,-1],"type":"VEC3"},{"bufferView":13,"componentType":5126,"count":24,"max":[1,1],"min":[0,0],"type":"VEC2"},{"bufferView":14,"componentType":5123,"count":36,"max":[23],"min":[0],"type":"SCALAR"},{"bufferView":15,"componentType":5126,"count":2,"max":[0,0,5],"min":[0,0,-5],"type":"VEC3"},{"bufferView":16,"componentType":5126,"count":24,"max":[0.5,0.5,0.5],"min":[-0.5,-0.5,-0.5],"type":"VEC3"},{"bufferView":17,"componentType":5126,"count":24,"max":[1,1,1],"min":[-1,-1,-1],"type":"VEC3"},{"bufferView":18,"componentType":5126,"count":24,"max":[1,1],"min":[0,0],"type":"VEC2"},{"bufferView":19,"componentType":5123,"count":36,"max":[23],"min":[0],"type":"SCALAR"},{"bufferView":20,"componentType":5126,"count":2,"max":[0,0,5],"min":[0,0,-5],"type":"VEC3"},{"bufferView":21,"componentType":5126,"count":1089,"max":[0.5,0.5,0.5],"min":[-0.5,-0.5,-0.5],"type":"VEC3"},{"bufferView":22,"componentType":5126,"count":1089,"max":[1,1,1],"min":[-1,-1,-1],"type":"VEC3"},{"bufferView":23,"componentType":5126,"count":1089,"max":[1.015625,1],"min":[-0.015625,0],"type":"VEC2"},{"bufferView":24,"componentType":5123,"count":5952,"max":[1088],"min":[0],"type":"SCALAR"},{"bufferView":25,"componentType":5126,"count":2,"max":[0,0,5],"min":[0,0,-5],"type":"VEC3"},{"bufferView":26,"componentType":5126,"count":24,"max":[0.5,0.5,0.5],"min":[-0.5,-0.5,-0.5],"type":"VEC3"},{"bufferView":27,"componentType":5126,"count":24,"max":[1,1,1],"min":[-1,-1,-1],"type":"VEC3"},{"bufferView":28,"componentType":5126,"count":24,"max":[1,1],"min":[0,0],"type":"VEC2"},{"bufferView":29,"componentType":5123,"count":36,"max":[23],"min":[0],"type":"SCALAR"}],"materials":[{"pbrMetallicRoughness":{"baseColorFactor":[0,1,1,1],"metallicFactor":0.5,"roughnessFactor":0.5}},{"pbrMetallicRoughness":{"baseColorFactor":[0.012286488353353374,0.008568125615105716,0.07227185067438519,1],"metallicFactor":0.5,"roughnessFactor":0.5}},{"pbrMetallicRoughness":{"baseColorFactor":[0,1,1,1],"metallicFactor":0.5,"roughnessFactor":0.5}},{"pbrMetallicRoughness":{"baseColorFactor":[0.08021982030622662,0.6866853124288865,0.061246054224174035,1],"metallicFactor":0.5,"roughnessFactor":0.5}},{"pbrMetallicRoughness":{"baseColorFactor":[0,1,1,1],"metallicFactor":0.5,"roughnessFactor":0.5}},{"pbrMetallicRoughness":{"baseColorFactor":[0.035601314869097636,0.026241221889696346,0.026241221889696346,1],"metallicFactor":0.5,"roughnessFactor":0.5}},{"pbrMetallicRoughness":{"baseColorFactor":[0,1,1,1],"metallicFactor":0.5,"roughnessFactor":0.5}},{"pbrMetallicRoughness":{"baseColorFactor":[0.7083757798856457,0.04091519690055698,0.23074004851362045,1],"metallicFactor":0.5,"roughnessFactor":0.5}},{"pbrMetallicRoughness":{"baseColorFactor":[0,1,1,1],"metallicFactor":0.5,"roughnessFactor":0.5}},{"pbrMetallicRoughness":{"baseColorFactor":[0.02028856305209031,0.5906188409113381,0.6375968739867731,1],"metallicFactor":0.5,"roughnessFactor":0.5}},{"pbrMetallicRoughness":{"baseColorFactor":[0,1,1,1],"metallicFactor":0.5,"roughnessFactor":0.5}},{"pbrMetallicRoughness":{"baseColorFactor":[0.2874408377161099,0.1412632911304446,0.5028864580233624,1],"metallicFactor":0.5,"roughnessFactor":0.5}}],"meshes":[{"primitives":[{"mode":3,"attributes":{"POSITION":0},"material":0}]},{"primitives":[{"mode":4,"attributes":{"POSITION":1,"NORMAL":2,"TEXCOORD_0":3},"indices":4,"material":1}]},{"primitives":[{"mode":3,"attributes":{"POSITION":5},"material":2}]},{"primitives":[{"mode":4,"attributes":{"POSITION":6,"NORMAL":7,"TEXCOORD_0":8},"indices":9,"material":3}]},{"primitives":[{"mode":3,"attributes":{"POSITION":10},"material":4}]},{"primitives":[{"mode":4,"attributes":{"POSITION":11,"NORMAL":12,"TEXCOORD_0":13},"indices":14,"material":5}]},{"primitives":[{"mode":3,"attributes":{"POSITION":15},"material":6}]},{"primitives":[{"mode":4,"attributes":{"POSITION":16,"NORMAL":17,"TEXCOORD_0":18},"indices":19,"material":7}]},{"primitives":[{"mode":3,"attributes":{"POSITION":20},"material":8}]},{"primitives":[{"mode":4,"attributes":{"POSITION":21,"NORMAL":22,"TEXCOORD_0":23},"indices":24,"material":9}]},{"primitives":[{"mode":3,"attributes":{"POSITION":25},"material":10}]},{"primitives":[{"mode":4,"attributes":{"POSITION":26,"NORMAL":27,"TEXCOORD_0":28},"indices":29,"material":11}]}]}